<?xml version="1.0" encoding="UTF-8"?>
<svg id="_Шар_1" data-name="Шар 1" xmlns="http://www.w3.org/2000/svg" viewBox="0 0 1224 436">
  <defs>
    <style>
      .cls-1 {
        fill: #fff;
      }

      .cls-2 {
        fill: #040404;
      }

      .cls-3 {
        fill: #e30110;
      }
    </style>
  </defs>
  <path class="cls-3" d="M1090.88,212.24v41.37c0,10.25-14.37,21.69-24.11,22.66-28.15,2.79-61.3-1.4-89.97.76-2.22.03-4.17-.79-6.41-.79-112.39-.08-224.88-.29-337.16.75v14.75c0,2.25,7.58,1.63,8.99,1.81,39.64,5.06,61.52,34.71,59.37,74.1h-55.41v-14.75c0-3.99-15.6-3.53-18.98-4.05-34.65-5.25-52.61-39.77-49.38-72.58h-25.54c-9.5,0-22.67-15.46-22.67-24.82v-16.19h513.06v15.47c0,.4,2.1,5.26,2.57,6.06,9.24,15.84,35.57,8.33,35.57-8.22v-25.54h-551.2v-10.79h561.27Z"/>
  <path class="cls-2" d="M485.53,176.08l-24.98,11.37-2.47.32c-3.83-2.44-23.96-9.44-25.67-11.81-2.15-2.99.5-18.22-.99-22.75l-22.69-10.46h-1.45c-5.42,3.81-16.31,6.1-21.15,9.85-1.12.87-1.04,1.07-1.19,2.4-.57,4.91.4,11.06.16,16.11l100.68,46.46-.38,70.96-74.71,34.65-3.03.62-77.76-35.28-.19-47.02c.93-3.1,22.08-10.44,25.75-13.12h3.63s24.5,11.49,24.5,11.49c1.07.8,1.26,1.64,1.42,2.9.43,3.38-.76,18.36.08,19.71l22.01,10.07c8.53-1.67,16.19-7.41,24.54-10.05-.28-3.03,1.01-16.91-.62-18.25l-101.12-46.39-.23-71.12,76.87-35.07h1.44s77.78,35.98,77.78,35.98l-.24,48.44ZM479.23,128.07l-71.72-32.2c-21.97,10.1-44.43,19.39-66.2,29.91-1.53.74-3.73,1.4-4.55,2.99,7.4,2.7,14.13,7.19,21.77,9.24l49.12-22.24,3.03.61,46.78,21.62,8.59-3.35,13.18-6.59ZM405.84,120.87l-46.77,21.22v38.49l21.47-9.47c.96-4.08-1.31-18.39,1.15-20.79l24.15-10.75v-18.71ZM456.93,182.74v-40.65l-46.77-21.22v18.71c3.85,1.89,22.86,8.8,24.52,11.1,2.04,2.83-.25,18.2.78,22.6l21.47,9.47ZM333.16,131.66v64.03c.93-.06,1.81.18,2.64.57,32.95,15.36,66.07,30.36,99.1,45.55.8.36,1.01.91,1.16,1.72.68,3.65-.96,17.19.33,19.1l20.54,9.32v-39.93l-100.75-46.75-.83-44.14-22.19-9.47ZM482.12,131.66l-21.59,9.35v41.73l21.59-9.35v-41.73ZM479.96,219.42l-1.65-1.57c-32.18-14.11-64.02-29.88-96.2-43.43l-20.15,9.05,96.24,44.46c7.58-.77,14.3-6.54,21.77-8.51ZM482.12,286.34v-64.03c-2.96,1.77-20.75,8.45-21.47,10.55l-.47,44.14-50.02,23.01v18.71l71.96-32.38ZM377.78,241.02l-20.5-9.1-20.51,9.1c-.35.46,1.17,1.32,1.65,1.57,2.96,1.59,13.58,6.72,16.31,7.43.88.23,1.62.41,2.54.41,2.44,0,15.65-6.37,18.73-7.96.67-.35,1.71-.43,1.77-1.45ZM333.16,244.61v40.65l72.68,33.45v-18.71l-49.66-22.65c-1.98-2.21.11-19.22-.83-23.27l-22.19-9.47ZM380.66,244.61l-21.59,9.35v17.99l21.59-9.35v-17.99ZM454.77,274.84l-21.1-9.2-25.97,11.34-25.12-11.35-14.41,6.42-6.22,3.85,46.3,21.07c14.29-7.33,29.61-12.83,43.92-20.07.54-.27,3.05-1.47,2.61-2.06Z"/>
  <path class="cls-2" d="M177.02,308.28c-.18.83-1.48,2.28-2.36,2.68l-28.35,12.6-28.51-12.73-.75-.92c-1.06-59.44-.25-119.07-.41-178.58l1.16-2.6,83.45-37.91,83.03,37.55,2,1.6.14,78.9-25.96,12.4,26.72,86.29-.52,1.14-29.47,14.31-27.93-11.58c-1.83-1.27-3.22-7.18-4.05-9.62-6.4-18.66-11.03-38.29-18.33-56.47-1.1.63-2.58,1.82-3.79,2.02-4.61.78-20.31-9.75-26.08-10.67v71.58ZM279.19,130.23l-78.07-35.21-77.36,35.56c8.2,3.1,16.08,8.57,24.64,10.3l53.57-24.15,53.3,24.16c1.84.37,3.38-.58,4.99-1.2,4.8-1.83,12.75-5.46,17.29-7.89.48-.26,2-1.11,1.65-1.57ZM200.04,142.45v-20.86l-51.09,23.02v46.76l23.4-10.78.68-25.94,27.01-12.2ZM255.45,191.37v-45.68l-51.81-24.1v19.78c4.12,4.44,24.75,9.96,27.4,13.61,2.23,3.08-.57,20.76,1.01,25.61l23.4,10.78ZM120.89,133.82v174.11l23.75,10.07v-98.92c0-.29,1.16-1.25,1.76-1.09l53.65,24.47v-21.58l-54.59-24.56-.21-51.23-24.35-11.27ZM282.79,133.82l-23.65,10.17-.45,51.71-55.06,26.25v20.5l25.13-11.14,2.05.51,26.79,86.17c1.08.95,22.07-10.63,25.24-11.95l-26.59-86.85c8.19-5.28,18.09-8,26.54-13.07v-72.3ZM200.58,146.18l-23.94,11.37c-.55.91-.66,18.98-.39,21.27.12,1.04.07,1.89,1.2,2.4,8.43,3.4,16.34,8.3,25.07,10.85l25.24-11.48c.55-.91.67-19,.39-21.27-.33-2.73-1.9-2.71-4.1-3.81-5.01-2.51-13.74-6.95-18.77-8.57-1.72-.55-2.73-1.13-4.69-.75ZM252.57,194.26l-22.65-10.01-28.03,12.15-27.4-12.17-22.67,10.38,50,22.69,4.46-1.34,46.28-21.7ZM148.23,223.03v94.97c3.14-.84,23.83-9.75,24.35-11.27l.03-72.83-24.38-10.87ZM228.1,235.98c-.71-.52-15.13,6.4-16.09,7.12-.45.34-.64.55-.52,1.14l19.5,63.14c2.68,1.46,22.03,10.64,23.03,9.88l-25.91-81.29Z"/>
  <path fill="currentColor" d="M673.16,204.32c-.47-.14-1.16-1.12-1.07-1.75l30.64-78.8c.25-1.06-1.54-1.65-1.86-3.28-.36-1.82-.31-15.56.14-17.1.64-2.18,3.18-3.23,5.2-3.43,3.95-.39,14.06-1.06,15.37,3.43.45,1.54.49,15.31.14,17.11-.33,1.66-2.15,2.26-2.04,3.47,8.85,24.58,20.86,49.07,29.21,73.71.4,1.18,2.78,6.65.54,6.65h-15.83c-3.31-3.08-4.07-12.23-6.47-15.11-.67-.81-1.24-.65-2.12-.76-8.91-1.11-20.26.83-29.44.14-1.77.6-5.34,15.73-7.29,15.73-3.2,0-12.93.65-15.11,0ZM714.54,107.2h-7.2v10.07h7.2v-10.07ZM720.3,172.67l-9.36-25.18-10.07,25.18h19.43Z"/>
  <path fill="currentColor" d="M551.2,182.02v21.22c0,.08-1,1.08-1.08,1.08h-14.75c.23-.71-.72-1.56-.72-1.8v-77.7c0-1.29,2.85-1.74,3.91-1.84,16.51-1.65,35.77,1.33,52.59.03,3.32.24,12.59,9.6,13.14,12.04-.97,6.86,2.08,32.03-.53,36.58-.37.64-9.74,10.39-10.47,10.39h-42.1ZM551.2,165.47h34.9c.54,0,1.63-1.75,1.78-2.54.4-2.09.23-20.67-.35-21.91-.16-.34-1.3-1.45-1.43-1.45h-34.9v25.9Z"/>
  <path fill="currentColor" d="M1019.64,152.52c1.25.31,1.44-.52,2.16-1.07,11.09-8.53,20.78-19.26,31.84-27.88,1.87-.76,19.55-.97,20.7-.2,2.22,1.48-1.09,4.02-2.17,5.06-11.23,10.8-25.49,20.14-36.71,30.92-.66.63-2.27,1.8-2.1,2.79l41.36,38.55,1.04,3.64h-20.51c-2.43,0-30.47-30.17-35.62-33.09v32.02c0,.08-1,1.08-1.08,1.08h-14.75c.23-.71-.72-1.56-.72-1.8v-77.7c0-.13,1.67-1.8,1.8-1.8h13.67c.08,0,1.08,1,1.08,1.08v28.42Z"/>
  <path fill="currentColor" d="M919.26,204.32c-.47-.14-1.16-1.12-1.07-1.75l30.28-78.4c.36-.79.91-1,1.72-1.15,1.74-.32,13.57-.2,14.76.36.87.42,1.42,1.66,1.79,2.53,8.31,24.05,20.12,47.76,28.25,71.76.4,1.18,2.78,6.65.54,6.65h-15.83c-3.31-3.08-4.07-12.23-6.47-15.11-.67-.81-1.24-.65-2.12-.76-8.91-1.11-20.26.83-29.44.14-1.77.6-5.34,15.73-7.29,15.73-3.2,0-12.93.65-15.11,0ZM966.39,172.67l-9.36-25.18-10.07,25.18h19.43Z"/>
  <path fill="currentColor" d="M779.3,139.57v63.67c0,.08-1,1.08-1.08,1.08h-14.39c-.08,0-1.08-1-1.08-1.08v-63.67h-24.83c-.08,0-1.08-1-1.08-1.08v-14.39c0-.08,1-1.08,1.08-1.08h68.36c.13,0,1.8,1.67,1.8,1.8v13.67c0,.08-1,1.08-1.08,1.08h-27.7Z"/>
  <path fill="currentColor" d="M907.39,139.57v62.95c0,.24-.95,1.09-.72,1.8h-14.75c-.08,0-1.08-1-1.08-1.08v-63.67h-25.9c-.9-2.54-1.75-16.55,1.08-16.55h68.36c.08,0,1.08,1,1.08,1.08v14.39c0,.08-1,1.08-1.08,1.08h-26.98Z"/>
  <path fill="currentColor" d="M850.9,204.32c-1.2-.34-2.52-3.59-2.95-3.66-.73-.11-7.97,4.01-11.45,4.37-25.65,2.63-31.28-23.38-11.92-36.41-1.42-3.01-3.81-5.48-4.78-8.75-7.03-23.72,36.36-26.59,32-1.41-.9,5.17-9.19,11.73-9.08,13,.15,1.66,5.05,6.48,6.02,8.39l2.87-7.19h10.79c1.93,0,.4,7.22.03,8.67-.62,2.44-4.71,9.59-4.69,10.4.07,2.27,6.15,7.83,6.87,10.38.26.94,0,2.2-.78,2.2-2.92,0-10.85.59-12.95,0ZM835.18,150.58c-6.7.32-3.16,8.37-.11,11.28,4.61-2.47,7.6-11.64.11-11.28ZM829.17,191.87c2.57,2.38,11.37,1.98,12.01-.87.17-.75-8.32-12.38-9.08-12.54-2.97-.62-7.71,8.98-2.94,13.41Z"/>
  <path fill="currentColor" d="M628.91,187.78h35.62c.41,0,1.59,1.48,1.62,2.35.03,1.27-1.68,11.64-2.11,12.99-.17.54-.48.91-.94,1.21h-49.65c-.08,0-1.08-1-1.08-1.08v-79.14c0-.08,1-1.08,1.08-1.08h14.39c.08,0,1.08,1,1.08,1.08v63.67Z"/>
  <path class="cls-1" d="M333.16,131.66l22.19,9.47.83,44.14,100.75,46.75v39.93l-20.54-9.32c-1.29-1.91.35-15.44-.33-19.1-.15-.81-.36-1.36-1.16-1.72-33.03-15.19-66.15-30.19-99.1-45.55-.84-.39-1.71-.62-2.64-.57v-64.03Z"/>
  <path class="cls-1" d="M479.23,128.07l-13.18,6.59-8.59,3.35-46.78-21.62-3.03-.61-49.12,22.24c-7.64-2.05-14.38-6.54-21.77-9.24.82-1.59,3.02-2.25,4.55-2.99,21.77-10.52,44.23-19.81,66.2-29.91l71.72,32.2Z"/>
  <path class="cls-1" d="M482.12,286.34l-71.96,32.38v-18.71l50.02-23.01.47-44.14c.72-2.1,18.52-8.78,21.47-10.55v64.03Z"/>
  <path class="cls-1" d="M333.16,244.61l22.19,9.47c.94,4.06-1.14,21.07.83,23.27l49.66,22.65v18.71l-72.68-33.45v-40.65Z"/>
  <path class="cls-1" d="M479.96,219.42c-7.46,1.97-14.18,7.74-21.77,8.51l-96.24-44.46,20.15-9.05c32.19,13.55,64.02,29.32,96.2,43.43l1.65,1.57Z"/>
  <path class="cls-1" d="M454.77,274.84c.44.59-2.07,1.79-2.61,2.06-14.31,7.25-29.63,12.75-43.92,20.07l-46.3-21.07,6.22-3.85,14.41-6.42,25.12,11.35,25.97-11.34,21.1,9.2Z"/>
  <path class="cls-1" d="M456.93,182.74l-21.47-9.47c-1.03-4.4,1.26-19.77-.78-22.6-1.66-2.3-20.67-9.21-24.52-11.1v-18.71l46.77,21.22v40.65Z"/>
  <path class="cls-1" d="M405.84,120.87v18.71l-24.15,10.75c-2.47,2.4-.2,16.72-1.15,20.79l-21.47,9.47v-38.49l46.77-21.22Z"/>
  <polygon class="cls-1" points="482.12 131.66 482.12 173.39 460.53 182.74 460.53 141.01 482.12 131.66"/>
  <path class="cls-1" d="M377.78,241.02c-.06,1.02-1.1,1.11-1.77,1.45-3.08,1.59-16.3,7.96-18.73,7.96-.93,0-1.67-.18-2.54-.41-2.73-.71-13.35-5.84-16.31-7.43-.48-.26-2-1.11-1.65-1.57l20.51-9.1,20.5,9.1Z"/>
  <polygon class="cls-1" points="380.66 244.61 380.66 262.6 359.07 271.95 359.07 253.96 380.66 244.61"/>
  <path class="cls-1" d="M282.79,133.82v72.3c-8.44,5.07-18.35,7.79-26.54,13.07l26.59,86.85c-3.17,1.32-24.15,12.9-25.24,11.95l-26.79-86.17-2.05-.51-25.13,11.14v-20.5l55.06-26.25.45-51.71,23.65-10.17Z"/>
  <path class="cls-1" d="M120.89,133.82l24.35,11.27.21,51.23,54.59,24.56v21.58l-53.65-24.47c-.6-.16-1.76.79-1.76,1.09v98.92l-23.75-10.07v-174.11Z"/>
  <path class="cls-1" d="M279.19,130.23c.35.46-1.17,1.32-1.65,1.57-4.53,2.43-12.49,6.06-17.29,7.89-1.61.61-3.15,1.56-4.99,1.2l-53.3-24.16-53.57,24.15c-8.56-1.73-16.44-7.2-24.64-10.3l77.36-35.56,78.07,35.21Z"/>
  <path class="cls-1" d="M148.23,223.03l24.38,10.87-.03,72.83c-.52,1.51-21.21,10.42-24.35,11.27v-94.97Z"/>
  <path class="cls-1" d="M200.58,146.18c1.96-.38,2.98.2,4.69.75,5.03,1.62,13.76,6.07,18.77,8.57,2.2,1.1,3.78,1.08,4.1,3.81.27,2.27.16,20.36-.39,21.27l-25.24,11.48c-8.72-2.54-16.64-7.44-25.07-10.85-1.13-.51-1.08-1.36-1.2-2.4-.27-2.29-.16-20.37.39-21.27l23.94-11.37Z"/>
  <path class="cls-1" d="M255.45,191.37l-23.4-10.78c-1.59-4.85,1.22-22.53-1.01-25.61-2.65-3.65-23.28-9.18-27.4-13.61v-19.78l51.81,24.1v45.68Z"/>
  <polygon class="cls-1" points="200.04 142.45 173.03 154.65 172.35 180.59 148.95 191.37 148.95 144.61 200.04 121.59 200.04 142.45"/>
  <polygon class="cls-1" points="252.57 194.26 206.28 215.96 201.83 217.3 151.82 194.61 174.5 184.23 201.89 196.4 229.92 184.25 252.57 194.26"/>
  <path class="cls-1" d="M228.1,235.98l25.91,81.29c-1,.76-20.35-8.43-23.03-9.88l-19.5-63.14c-.12-.6.07-.81.52-1.14.96-.72,15.39-7.64,16.09-7.12Z"/>
  <polygon class="cls-1" points="720.3 172.67 700.87 172.67 710.93 147.49 720.3 172.67"/>
  <rect class="cls-1" x="707.34" y="107.2" width="7.2" height="10.07"/>
  <path class="cls-1" d="M551.2,165.47v-25.9h34.9c.12,0,1.27,1.11,1.43,1.45.58,1.25.75,19.82.35,21.91-.15.79-1.24,2.54-1.78,2.54h-34.9Z"/>
  <polygon class="cls-1" points="966.39 172.67 946.96 172.67 957.03 147.49 966.39 172.67"/>
  <path class="cls-1" d="M829.17,191.87c-4.77-4.43-.03-14.03,2.94-13.41.76.16,9.25,11.78,9.08,12.54-.65,2.85-9.44,3.26-12.01.87Z"/>
  <path class="cls-1" d="M835.18,150.58c7.48-.36,4.49,8.81-.11,11.28-3.05-2.91-6.59-10.96.11-11.28Z"/>
</svg>