<?xml version="1.0" encoding="UTF-8"?>
<svg id="_Шар_1" data-name="Шар 1" xmlns="http://www.w3.org/2000/svg" viewBox="0 0 973.59 276.47">
  <defs>
    <style>
      .cls-1 {
        fill: red;
      }
    </style>
  </defs>
  <path id="runva_" class="cls-1" d="M853.09,185c-112.39-.08-224.88-.29-337.16.75v14.76c0,2.82,14.35,2.86,17.42,3.45,16.58,3.21,32.36,14.41,40.99,28.82,8.02,13.39,10.33,28.18,9.95,43.68h-55.41v-14.76c0-4.15-15.33-3.48-18.98-4.05-34.4-5.38-48.23-34.85-49.44-66.51-.04-1.17,1.75-6.12-.3-6.12h-25.19c-10.42,0-22.67-16.19-22.67-26.28v-14.04h513.06v15.48c0,.57,2.68,5.93,3.28,6.79,8.06,11.54,25.89,10.23,32.35-2.1.61-1.17,2.51-5.17,2.51-6.13v-27H413.4c-2.2-2.49-.63-6.88-1.08-10.08h561.27v39.96c0,10.79-13.81,22.37-24.11,23.39"/>
  <path id="_1-s" data-name="1-s" d="M368.31,36.11v47.65c-.53,1.55-23.94,11.88-27.42,12.57-1.5-.71-3.07-1.27-4.61-1.89-2.62-1.07-20.34-8.97-21.11-9.84-2.09-2.34.37-18.6-1.06-22.7l-21.96-10.49c-1.39-.59-2.54.18-3.79.59-6.77,2.21-14.31,7.22-21.04,9.91-.28,2.89-1.12,17.15.36,18.37l100.63,45.83-.23,71.17-77.67,35.27-77.46-35.58-.19-47.05,27.23-12.8,26.87,12.04.45,22.24,23.16,10.58,24.6-10.73.17-16.83-102.83-47.97.21-70.48L290.3.72l78.01,35.39ZM361.95,36.72L290.22,4.49l-71.48,32.58c7.38,3.26,14.71,7.87,22.6,9.72l49.06-22.31,49.67,22.31c.88.19,1.64-.11,2.46-.32,3.16-.82,13.31-5.91,16.8-7.68.54-.27,3.05-1.47,2.61-2.06ZM289.27,29.51l-47.49,21.24v38.52l21.23-9.35c1.4-3.98-1.06-18.27,1.26-20.71,8.27-4,17.38-7.07,25-12.06v-17.64ZM339.64,92.15v-41.4l-47.49-21.24v17.64l25.19,12.23,1.06,22.7,21.24,10.07ZM215.87,39.59v64.44l101.03,46.51c.8.36,1.01.91,1.16,1.72,0,0-.96,17.2.33,19.11l21.26,9.33v-41.04l-100.75-45.71-.83-44.17-22.19-10.19ZM364.83,40.31l-21.59,9.36v42.48l21.59-10.44v-41.4ZM265.29,82.96l-19.92,8.83v1.45s96.41,43.99,96.41,43.99l20.88-9.43-97.37-44.83ZM292.15,209.87v17.28l1.47.77,71.21-33.17v-63.72l-21.49,9.46-.45,45.27-50.74,24.11ZM261.52,150.22l-21.54-9.56c-5.57,3.36-14.37,5.48-19.58,8.92-.68.45-1.3-.09-.93,1.6l20.51,8.6c6.78-3.01,21.54-9.56,21.54-9.56ZM215.87,153.35v41.76l71.93,32.81,1.47-.77v-17.28l-50.38-23.75-.83-23.29-22.19-9.47ZM263.37,153.35l-21.59,9.36v18.72l21.59-10.44v-17.64ZM337.48,183.6l-21.1-9.21-25.97,11.35-24.64-11.35-14.89,6.42-6.94,3.85,47.08,21.24,45.55-20.69.92-1.61Z"/>
  <path id="_1-r" data-name="1-r" d="M59.01,218.87l-29.86,13c-3.77-1.29-28.38-11.61-29.03-13.48l-.12-179.17,1.14-1.74L83.89,0l82.84,37.29,2.24,2.08v77.48s-2.24,2.08-2.24,2.08l-22.37,10.01-1.19,1.73,26.62,84.99-1.87,2.39-28.08,13.62-28.54-12.03-20.64-65.57-6.66,2.04-25-11.4v74.16ZM6.48,38.88c-.35.47,1.17,1.32,1.65,1.58,6.84,3.67,15.24,6.41,22.33,9.77l54.09-24.36,54.08,24.36c1.21.1,20-8.47,22.35-9.75.83-.45,1.22.04.92-1.6L83.82,3.67M82.75,50.75v-20.52l-51.09,23.04v47.52l23.63-10.91.83-26.18,26.63-12.95ZM138.16,53.27l-51.81-23.04v20.52l27.16,12.78c2.26,2.35.07,21.94,1.02,26.35l23.63,10.91v-47.52ZM82.75,151.19v-21.24l-54.34-25.55-.47-50.65L3.6,42.47v173.88l23.75,11.16v-99c0-.36,1.2-1.18,1.8-1.12l53.6,23.8ZM165.5,42.47l-23.77,10.56-.32,51.37-55.06,25.19v21.6l26.17-10.75.81.66,27.99,86.34c6.16-4.39,17.37-7.23,23.02-11.53.64-.49,1.21-.77,1.19-1.73l-26.56-85.54c.31-1.24,2.18-2,3.23-2.57,7.03-3.82,15.92-6.83,23.3-10.17V42.47ZM110.69,89.87v-23.17s-26.03-12.55-26.03-12.55l-25.57,11.46.35,24.46,25.7,11.29,25.54-11.48ZM135.28,102.96l-22.65-10.01-28.02,12.16-27.4-12.18-22.65,10.39,50.12,23.22c15.69-7.32,32.6-13.71,48-21.51.49-.25,3.06-1.47,2.61-2.06ZM30.94,131.75v95.76l24.49-11.28.02-72.63-.5-1.13-24.02-10.72ZM113.78,216.27l22.93,10.52-25.55-81.36c-.57-1.01-.97-.65-1.81-.43-4.97,1.31-10.43,6.03-15.81,6.91"/>
  <path id="A" d="M555.87,113.03c-1.99-.56.05-4.51.54-5.94,8.66-24.94,19.91-49.71,29.22-74.48.11-1.21-1.71-1.81-2.04-3.48-.36-1.8-.31-15.58.14-17.12,1.31-4.49,11.42-3.82,15.37-3.43,2.3.23,4.85,1.44,5.34,4.02.39,2.04.4,14.54,0,16.53-.37,1.84-2.47,2.23-1.88,3.98l30.56,77.56c.5.77-.46,2.35-.96,2.35h-15.83l-7.31-15.72c-9.26.6-20.41-1.2-29.43-.16-1.26.15-1.6.06-2.42,1.18-2.28,3.15-3.02,11.47-6.18,14.7h-15.11ZM597.25,15.83h-6.88v9.41h6.88s0-9.41,0-9.41ZM583.58,81.35h19.43c-2.62-7.2-5.18-14.58-8.32-21.57-.41-.92-.78-3.32-2.11-2.91l-9,24.48Z"/>
  <path id="P" d="M433.91,90.71v21.24l-1.08,1.08h-14.75V32.39h57.93c2.85,3.8,10.48,12.56,10.48,12.56.23,10.75-.78,23.97-.19,35.18l-10.29,10.59h-42.1ZM433.91,74.15h34.9c.54,0,1.63-1.75,1.78-2.54.4-2.09.23-20.68-.35-21.93-.16-.34-1.3-1.45-1.43-1.45h-34.9v25.92Z"/>
  <path id="K" d="M886.37,31.84c1.44-.27,15.98-.2,15.98.55v29.52l34.18-29.52h21.23l-.68,2.56-41.75,35.96,42.12,38.48,1.04,3.64h-20.51l-35.62-33.12v32.04l-.04,1.08h-16.27"/>
  <path id="A-2" d="M823.78,97.21c-2.28,3.15-3.54,12.59-6.7,15.82h-15.11c-1.99-.56.05-4.51.54-5.94,7.56-21.76,17.05-45.63,25.9-66.96,1.15-2.76,1.94-7.39,5.18-7.78,2.17-.26,14.32-.25,15.16.76l30.46,77.58c.5.77-.46,2.35-.96,2.35h-15.83l-7.31-15.72M829.67,81.35h19.43c-2.62-7.2-5.18-14.58-8.32-21.57-.41-.92-.78-3.32-2.11-2.91"/>
  <path id="T-1" d="M690.07,32.39c1.1.7,1.03,13.68,0,15.84h-28.06v63.72l-1.08,1.08h-14.75c.23-.71-.72-1.56-.72-1.8v-63h-24.83l-1.08-1.08v-13.68l1.08-1.08h69.44Z"/>
  <path id="T-2" d="M789.38,48.23v63.72l-1.08,1.08h-13.67l-1.08-1.08v-63.72h-25.9c-1.14-5.01-1.14-10.84,0-15.84h69.44l1.08,1.08v13.68l-1.08,1.08h-27.7Z"/>
  <path id="_" data-name="&amp;amp;" d="M733.61,113.03c-1.14-.32-3.13-4.3-3.6-4.31-24.48,18.03-49.27-13.45-22.61-30.68-2.84-6.23-5.95-8.99-5.09-16.5,1.72-15.05,28.98-15.87,32.06-1.12,1.71,8.21-3.37,14.79-9.76,19.15l6.49,9.69c1.87.23,1.13-.02,1.45-1.04.45-1.46.52-5.8,1.11-6.24,2.01-.74,10.58-1.29,11.5.04,1.53,6.66-1.84,12.99-5.21,18.41-.14,2.24,8.75,9.34,6.96,12.6-3.56-.63-10.23.86-13.31,0ZM716.48,59.89c-4.76,1.47-1.1,8.36,1.3,10.65,5.53-2.94,7.23-13.28-1.3-10.65ZM714.23,87.14c-10.74,7.1-.16,21.18,8.93,13.27,1.1-.95.45-.97-.13-1.99-1.18-2.11-5.58-8.5-7.18-10.11-.48-.49-.59-1.46-1.63-1.17Z"/>
  <path id="L" d="M511.62,97.19h36.7l-2.16,15.84h-50.01l-1.08-1.08V32.39l15.11-.36c.32.2,1.44,1.96,1.44,2.16v63Z"/>
</svg>