<?xml version="1.0" encoding="UTF-8"?>
<svg id="_Слой_1" data-name="Слой 1" xmlns="http://www.w3.org/2000/svg" viewBox="0 0 368.75 232.76">
  <defs>
    <style>
      .cls-1 {
        fill: #1a1a18;
        fill-rule: evenodd;
      }
    </style>
  </defs>
  <path class="cls-1" d="M0,39.43c0-.91.69-1.66,1.58-1.74L83.53.16h0s.04-.02.04-.02h.03s0-.02,0-.02h0s.03-.02.03-.02c.16-.06.32-.09.48-.11h0s.03,0,.03,0h.02s.03,0,.03,0h.02s.03,0,.03,0h.06s.03,0,.03,0h.02s.03,0,.03,0h0c.16.01.33.05.48.11h.03s0,.02,0,.02h0s.03.02.03.02l.04.02,83.12,38c.68.24,1.17.89,1.17,1.65v76.91c0,.76-.49,1.41-1.16,1.65l-25.21,11.54,26.98,85.47c.27.87-.17,1.79-.99,2.14l-28.19,14c-.11.06-.23.12-.35.16-.43.14-.87.1-1.25-.08l-27.08-11.66c-.49-.21-.83-.61-.98-1.08l-20.51-64.96-4.75,2.17c-.25.14-.55.23-.86.23s-.61-.08-.86-.23l-24.76-11.34v72.37c0,.08,0,.16-.02.24.08.73-.31,1.45-1.01,1.77l-28.31,12.96-.04.02h-.03s0,.02,0,.02h0s-.03.02-.03.02c-.16.06-.32.09-.48.11h0s-.03,0-.03,0h-.02s-.03,0-.03,0h-.02s-.03,0-.03,0h-.04s-.02,0-.02,0h-.03s-.02,0-.02,0h-.03s0,0,0,0c-.16-.01-.33-.05-.48-.11h-.03s0-.02,0-.02h0s-.03-.02-.03-.02l-.04-.02h0s-27.34-12.52-27.34-12.52c-.68-.24-1.16-.89-1.16-1.65V39.43h0ZM342.61,137.45l20.9-9.57-98.06-44.9-21.17,9.69,97.33,44.56s.1,0,.15,0c.31,0,.6.08.85.22h0ZM365.25,130.92v64.11l-72.64,33.26v-19.13l49.9-22.85c.72-.33,1.11-1.08,1-1.82v-43.62l21.74-9.95h0ZM290.86,206.13l47.51-21.75-21.84-10-24.82,11.36-.04.02h-.03s0,.02,0,.02h0s-.03.02-.03.02c-.16.06-.32.09-.48.11h0s-.03,0-.03,0h-.02s-.03,0-.03,0h-.02s-.03,0-.03,0h-.04s-.02,0-.02,0h-.03s-.02,0-.02,0h-.03s0,0,0,0c-.16-.01-.33-.05-.48-.11h-.03s0-.02,0-.02h0s-.03-.02-.03-.02l-.04-.02h0l-24.77-11.34-21.97,10.06,47.33,21.67h0ZM290.99,182.24l24.06-11.02v-17.69l-101.42-46.44c-.68-.24-1.16-.89-1.16-1.65V37.26c0-.9.68-1.64,1.56-1.74L289.54.94l.04-.02h.03s0-.02,0-.02h0s.03-.02.03-.02c.16-.06.32-.09.48-.11h0s.03,0,.03,0h.02s.03,0,.03,0h.02s.03,0,.03,0h.04s.02,0,.02,0h.03s.02,0,.02,0h.03s0,0,0,0c.16.01.33.05.48.11h.03s0,.02,0,.02h0s.03.02.03.02l.04.02h0l76.74,35.08c.72.33,1.11,1.08,1,1.83.02.09.02.19.02.28v45.22c0,.76-.49,1.41-1.16,1.65l-24.85,11.38c-.49.37-1.17.46-1.77.19l-25.18-11.53c-.68-.24-1.16-.89-1.16-1.65v-21.41l-23.69-10.85-23.69,10.85v17.98l99.95,45.77c.88.1,1.56.84,1.56,1.74v68.59c0,.05,0,.11,0,.16-.02.64-.4,1.24-1.02,1.52l-76,34.8c-.26.14-.55.23-.86.23s-.61-.08-.86-.23l-76.37-34.97c-.68-.24-1.16-.89-1.16-1.65v-44.7c0-.56.26-1.05.66-1.37.02-.05.04-.1.06-.15.23-.51.67-.85,1.17-.97l25.09-11.49.04-.02h.03s0-.02,0-.02h0s.03-.01.03-.01c.16-.06.32-.09.48-.11h0s.03,0,.03,0h.02s.03,0,.03,0h.02s.03,0,.03,0h.04s.02,0,.02,0h.03s.02,0,.02,0h.03s0,0,0,0c.16.01.33.05.48.11h.03s0,.01,0,.01h0s.03.02.03.02l.04.02,25.18,11.53c.68.24,1.17.89,1.17,1.65v20.94l23.75,10.87h0ZM239.45,186.42l49.66,22.74v19.13l-73.15-33.49v-41.91l22.38,10.25v20.65c0,.22.04.44.12.63v.03c-.17.79.22,1.62.98,1.97h0ZM241.85,181.39v-18.25l21.9-10.03v18.25l-21.9,10.03h0ZM240.17,140.75l-21.17,9.69,21.1,9.66,21.17-9.69-21.1-9.66h0ZM318.55,171.46v-19.15c0-.91-.69-1.66-1.58-1.74l-101.01-46.25V39.89l22.38,10.25v42.54c0,.76.49,1.41,1.16,1.65l100.5,46.02v40.95l-21.46-9.83h0ZM343.52,92.19v-42.25l21.74-9.95v42.25l-21.74,9.95h0ZM340.9,47.29l21.53-9.86L290.26,4.45l-71.66,32.81,22.07,10.1,49.33-22.59c.25-.14.55-.23.86-.23s.61.08.86.23l49.17,22.52h0ZM241.85,89.95v-39.29l47.26-21.64v19.11l-24.34,11.14c-.39.18-.68.48-.85.84h0s0,.02,0,.02c-.11.23-.16.48-.16.74v19.05l-21.9,10.03h0ZM318.12,82.27v-21.39c0-.26-.06-.52-.16-.74v-.02s0,0,0,0c-.17-.36-.46-.66-.85-.84l-24.48-11.21v-19.04l47.4,21.7v41.57l-21.89-10.02h0ZM166.1,215.01l-27-85.51c-.28-.9.19-1.85,1.07-2.17l25.61-11.73V42.15l-23.88,10.94v50.45c0,.76-.49,1.41-1.17,1.65l-53.66,24.57c-.1.21-.24.4-.4.55v21.52l4.08-1.87c.08-.04.16-.08.25-.12l20.22-9.26c.1-.06.21-.1.33-.14.92-.29,1.9.22,2.2,1.14l27.14,85.95,25.22-12.53h0ZM137,226.89l-26-82.37-17.27,7.91,20.4,64.61,22.87,9.85h0ZM162.91,39.62L84.26,3.66,6.15,39.43l24.3,11.13,53.6-24.54c.25-.15.55-.23.86-.23s.61.08.86.23l53.43,24.46,23.71-10.86h0ZM3.5,42.05v174.74l24.01,10.99v-98.13c0-.11.01-.21.03-.32-.05-.33-.01-.68.14-1,.4-.88,1.44-1.26,2.31-.86l53.17,24.35v-21.68c-.1-.12-.18-.25-.25-.39l-53.66-24.57c-.68-.24-1.16-.89-1.16-1.65v-50.23L3.5,42.05h0ZM55.79,216.41v-73.28l-24.78-11.35v95.97l24.78-11.35h0ZM31.58,100.81l24.06-11.02v-24.75c0-.25.05-.49.15-.7h0s0-.02,0-.02h0c.17-.38.47-.7.87-.88l26.49-12.13v-21.06l-51.58,23.62v46.94h0ZM57.4,92.83l-23.38,10.7,50.7,23.21c.06,0,.13-.01.19-.01.1,0,.21,0,.31.03l50.73-23.23-23.37-10.7-26.74,12.24c-.27.13-.57.17-.85.15-.28.02-.57-.03-.85-.15l-26.74-12.25h0ZM114.34,89.8l24.05,11.01v-46.87l-51.73-23.68v20.99l26.65,12.2c.4.18.7.51.87.88h0s0,.02,0,.02h0c.09.22.15.45.15.7v24.75h0ZM110.84,66.15l-25.85-11.84-25.85,11.84v23.64l25.85,11.84,25.85-11.84v-23.64Z"/>
</svg>